<svg id="Capa_1" data-name="Capa 1" xmlns="http://www.w3.org/2000/svg" viewBox="0 0 163.85 163.85"><defs><style>.cls-1{fill:#c4c4c4;}</style></defs><title>61f148ec40dcb9521ced3135_logo_CP</title><circle class="cls-1" cx="81.92" cy="81.92" r="81.92"/><path d="M67.72,92.13c5-.52,7.92-13.06,6.39-28.15S67.21,37.2,62.18,37.71s-8,13.19-6.51,28.15S62.56,92.65,67.72,92.13ZM32.4,103.54l.64-.07a3.37,3.37,0,0,0,3-3.43c.05-.79.38-2.65.45-3.31C42,106.86,57.7,132,85,129.19A57.72,57.72,0,0,0,94,127.5c11.77-3.41,20.43-10.55,24.74-20.63a42.6,42.6,0,0,0,1.68-28.31c-5-18-17-25.77-27.27-24.72a37,37,0,0,1,3.76-13,3.73,3.73,0,0,0-1.55-4.93,3.58,3.58,0,0,0-4.92,1.55c-.23.28-14.19,27,6.65,51.31A4.28,4.28,0,0,0,100.33,90a4.33,4.33,0,0,0,2-.85,3.73,3.73,0,0,0,.38-5.25A39.29,39.29,0,0,1,93,61.28c9.33-1.86,17.28,8.41,20.34,19.3,6.24,23-7.69,35.83-21.48,39.84-32.4,9.42-48.18-24-50.38-29a10.3,10.3,0,0,1,1.61-.81,3.67,3.67,0,0,0,2.4-4.55,3.76,3.76,0,0,0-4.67-2.39c-.37.17-11.09,3.74-11.8,15.92a3.5,3.5,0,0,0,3.39,3.83Z"/></svg>